<svg width="29" height="29" viewBox="0 0 29 29" fill="none" xmlns="http://www.w3.org/2000/svg">
<path d="M14.0751 25.8035C7.59722 25.8035 2.34619 20.5525 2.34619 14.0746C2.34619 7.59674 7.59722 2.3457 14.0751 2.3457C20.553 2.3457 25.804 7.59674 25.804 14.0746C25.797 20.549 20.5495 25.7965 14.0751 25.8035ZM9.06334 17.3435C8.91203 17.3435 8.7619 17.3622 8.61412 17.3974L8.43819 17.4455L7.74149 18.6383C7.61423 18.8506 7.57337 19.1036 7.62734 19.3452C7.68132 19.5867 7.826 19.7983 8.03151 19.9362C8.23702 20.0741 8.48766 20.1278 8.73163 20.0862C8.97561 20.0446 9.19428 19.9109 9.34249 19.7127L9.41521 19.6036L10.3418 17.9956C10.1916 17.7947 9.997 17.6313 9.77318 17.5182C9.54935 17.4051 9.30239 17.3453 9.05161 17.3435H9.06334ZM15.4955 10.1572C15.1305 10.5 14.8886 10.9533 14.807 11.4473C14.6762 12.1285 14.8015 12.8339 15.1589 13.4283L18.7244 19.6048C18.8485 19.8136 19.0464 19.9682 19.279 20.0382C19.5116 20.1081 19.762 20.0882 19.9806 19.9825C20.1986 19.8749 20.368 19.6891 20.455 19.4621C20.542 19.2351 20.5401 18.9836 20.4498 18.758L20.3923 18.6407L19.454 17.0092H20.8497C21.0941 17.0071 21.3287 16.9124 21.506 16.7442C21.6834 16.576 21.7902 16.3467 21.8051 16.1027C21.82 15.8587 21.7418 15.6182 21.5862 15.4296C21.4307 15.2411 21.2094 15.1186 20.967 15.0868L20.8497 15.0798H18.3397L15.7664 10.6228L15.4978 10.1536L15.4955 10.1572ZM7.34271 15.0716C7.21667 15.0719 7.09193 15.097 6.97563 15.1456C6.85934 15.1942 6.75377 15.2653 6.66497 15.3547C6.57618 15.4442 6.5059 15.5503 6.45817 15.6669C6.41044 15.7836 6.38618 15.9085 6.3868 16.0345C6.3868 16.5201 6.74805 16.9306 7.23011 16.9928L7.3474 16.9986H16.1206C16.2177 16.8037 16.2666 16.5882 16.2631 16.3705C16.2596 16.1527 16.2039 15.9389 16.1007 15.7472C16.0129 15.5675 15.882 15.4123 15.7197 15.2955C15.5575 15.1786 15.3688 15.1037 15.1706 15.0774L15.0287 15.0704H12.0366L16.1746 7.90521C16.302 7.68309 16.3366 7.41962 16.2708 7.17215C16.2239 6.99848 16.1295 6.84133 15.9982 6.71838C15.8669 6.59543 15.7039 6.51157 15.5276 6.47622C15.3512 6.44087 15.1685 6.45545 14.9999 6.51831C14.8314 6.58116 14.6837 6.68981 14.5736 6.83201L14.5009 6.93992L14.0751 7.68353L13.654 6.93992C13.5299 6.73084 13.3318 6.57599 13.099 6.50604C12.8661 6.4361 12.6155 6.45616 12.3967 6.56225C12.1788 6.67021 12.0095 6.85627 11.9226 7.08339C11.8356 7.31051 11.8374 7.56204 11.9275 7.78792L11.985 7.90521L12.9585 9.61763L9.8093 15.0716H7.34271Z" fill="white"/>
</svg>
